<svg width="911" height="304" viewBox="0 0 911 304" fill="none" xmlns="http://www.w3.org/2000/svg">
<rect width="911" height="303" rx="25" transform="matrix(-1 0 0 1 911.006 0.5)" fill="#FBFBFB"/>
<rect width="240.101" height="156" rx="25" transform="matrix(-1 0 0 1 240.107 0.5)" fill="#CFFFE5"/>
<path d="M172.918 47.5C204.042 78 188.727 0.5 188.727 0.5H241.095V166L0.5 168.5V110.5H5.93439L25.2017 130C36.5645 137.5 74.8326 116.708 58.7961 91C70.6529 101.5 104.247 128.5 102.271 93.5C124.038 95.3727 125.652 83.3838 122.033 54C150.193 99.5 172.918 47.5 172.918 47.5Z" fill="#FBFBFB" stroke="#FBFBFB"/>
</svg>
