<svg width="911" height="304" viewBox="0 0 911 304" fill="none" xmlns="http://www.w3.org/2000/svg">
<rect width="911" height="303" rx="25" transform="matrix(1 0 0 -1 0 303)" fill="#FBFBFB"/>
<rect width="240.101" height="156" rx="25" transform="matrix(1 0 0 -1 670.899 303)" fill="#F9E5EE"/>
<path d="M738.088 256C706.964 225.5 722.279 303 722.279 303H669.911V137.5L910.506 135V193H905.072L885.804 173.5C874.441 166 836.173 186.792 852.21 212.5C840.353 202 806.759 175 808.735 210C786.968 208.127 785.354 220.116 788.973 249.5C760.813 204 738.088 256 738.088 256Z" fill="#FBFBFB" stroke="#FBFBFB"/>
</svg>
