<svg width="28" height="37" viewBox="0 0 28 37" fill="none" xmlns="http://www.w3.org/2000/svg">
<path d="M14.0012 20C19.5141 20 24 15.5148 24 9.99996C24 4.48498 19.5141 0 14.0012 0C8.48588 0 4 4.48498 4 9.99996C4 15.5148 8.48588 20 14.0012 20ZM14.0012 4.99998C16.7588 4.99998 18.9994 7.24247 18.9994 9.99996C18.9994 12.7575 16.7588 14.9999 14.0012 14.9999C11.2435 14.9999 9.00059 12.7575 9.00059 9.99996C9.00059 7.24247 11.2435 4.99998 14.0012 4.99998Z" fill="#262626"/>
<path d="M27.2691 17.6979C26.2897 16.7674 24.7084 16.7674 23.7312 17.6979C18.3671 22.7998 9.63665 22.7998 4.27024 17.6979C3.29307 16.7674 1.71176 16.7674 0.734591 17.6979C-0.244864 18.6282 -0.244864 20.1322 0.734591 21.0651C3.84459 24.0252 7.78989 25.7125 11.8587 26.1528L4.72565 32.9373C3.74848 33.8678 3.74848 35.3716 4.72565 36.3021C5.70511 37.2326 7.2864 37.2326 8.26357 36.3021L14.0007 30.8456L19.7356 36.3021C20.223 36.7661 20.8638 36.9994 21.5045 36.9994C22.1453 36.9994 22.7861 36.7661 23.2735 36.3021C24.2507 35.3716 24.2507 33.8678 23.2735 32.9373L16.1404 26.1528C20.2093 25.7125 24.1545 24.0252 27.2668 21.0651C28.244 20.1346 28.244 18.6282 27.2691 17.6979Z" fill="#262626"/>
</svg>
