<svg width="434" height="434" viewBox="0 0 434 434" fill="none" xmlns="http://www.w3.org/2000/svg">
<circle cx="217" cy="217" r="217" fill="white"/>
<path d="M349.454 348.034C276.662 420.828 158.748 420.828 85.6539 348.034C12.5594 274.939 12.5594 157.026 85.6539 84.232C158.447 11.1377 276.361 11.1377 349.454 84.232C421.947 157.026 421.947 274.939 349.454 348.034Z" fill="#B3D9F3"/>
<path d="M269.444 149.806L267.639 232.225C267.639 232.225 257.412 244.859 217.105 244.859C177.399 244.859 171.082 230.42 171.082 230.42L169.578 154.619C167.773 154.92 171.684 154.619 169.578 154.619C148.221 154.92 127.165 137.774 127.165 116.417C127.165 95.0604 144.612 77.614 165.969 77.614C171.383 77.614 176.797 78.8172 181.61 80.9228C187.927 68.2892 201.463 59.566 216.503 59.566C230.941 59.566 242.673 67.6876 249.591 79.4188C255.908 74.606 263.729 72.1996 272.452 72.1996C293.809 72.1996 311.255 89.3452 311.255 111.003C311.556 132.36 291.101 149.806 269.444 149.806C271.249 149.806 268.241 149.806 269.444 149.806Z" fill="white"/>
<path d="M114.232 200.04C114.232 196.731 113.931 194.024 113.63 192.52C113.028 188.911 111.224 185.602 108.216 182.895C105.208 180.187 101.899 178.984 97.6877 178.984C93.4765 178.984 89.5661 180.488 86.5581 183.496C83.2493 180.488 79.6397 178.984 75.4285 178.984C71.5181 178.984 67.6077 180.488 64.9005 182.895C62.1933 185.301 60.0877 188.309 59.1853 192.52C58.8844 194.325 58.5836 196.731 58.5836 200.04V225.909C58.5836 227.413 59.7869 228.015 60.6893 228.015C62.1933 228.015 62.7949 226.811 62.7949 225.909V199.138C62.7949 194.325 63.6973 190.415 65.8029 187.407C67.9085 184.098 71.2173 182.594 75.7293 182.594C79.0381 182.594 81.7453 183.797 84.1517 186.203C82.0461 189.813 81.1437 193.723 81.1437 199.138V225.608C81.1437 226.811 82.0461 227.714 83.2493 227.714C84.7533 227.714 85.3549 226.511 85.3549 225.608V198.837C85.3549 194.927 85.9565 191.919 86.8589 189.813C87.7613 192.219 88.3629 195.829 88.3629 200.04V225.909C88.3629 227.112 89.2653 228.015 90.4685 228.015C91.9725 228.015 92.5741 226.811 92.5741 225.909V198.235C92.5741 192.821 91.6717 188.911 89.5661 185.903C91.6717 183.797 94.3789 182.594 97.6877 182.594C100.696 182.594 103.403 183.496 105.508 185.301C107.614 186.805 109.118 189.211 110.02 192.219C110.622 194.024 110.622 196.13 110.622 199.138V225.909C110.622 227.112 111.524 228.015 112.728 228.015C114.232 228.015 114.833 226.811 114.833 225.909L114.532 224.405V200.04H114.232Z" fill="#262626"/>
<path d="M162.961 186.505C158.148 181.692 152.132 179.285 145.214 179.285C138.296 179.285 132.28 181.692 127.467 186.505C122.654 191.317 120.248 197.333 120.248 204.252C120.248 211.17 122.654 217.186 127.768 221.999C132.881 226.812 138.897 229.218 145.816 229.218C150.929 229.218 155.742 227.714 159.652 225.007V225.609C159.652 227.714 160.856 228.316 161.758 228.316C162.66 228.316 163.864 227.413 163.864 225.609V221.698C168.676 216.585 171.083 210.869 171.083 204.252C170.481 197.033 167.774 191.017 162.961 186.505ZM159.051 204.553V220.194C154.84 223.804 150.328 225.609 145.214 225.609C139.499 225.609 134.385 223.503 130.475 219.292C126.264 215.381 124.459 210.569 124.459 204.553C124.459 198.537 126.564 193.724 130.776 189.513C134.987 185.301 139.8 183.196 145.816 183.196C151.531 183.196 156.644 185.301 160.555 189.513C164.465 193.724 166.872 198.537 166.872 204.252C166.872 208.463 165.668 212.073 163.563 215.381V204.553C162.961 201.545 159.051 201.545 159.051 204.553Z" fill="#262626"/>
<path d="M197.553 229.217C203.269 229.217 208.683 227.412 213.496 223.502C214.699 222.599 215.601 221.998 216.203 221.095H216.504V220.795C216.805 220.494 216.805 220.193 216.805 219.591C216.805 218.689 216.203 217.787 215 217.787H213.797L213.496 218.388V218.99C211.39 220.795 208.984 222.599 206.577 223.803C203.87 225.006 200.862 225.908 198.155 225.908C192.139 225.908 187.326 223.803 183.416 219.591C179.205 215.38 177.099 210.567 177.099 204.551C177.099 198.836 179.205 193.723 183.416 189.812C187.326 185.601 192.139 183.796 198.155 183.796C203.87 183.796 208.984 185.902 213.195 190.113L214.097 190.715H215.301L215.601 190.414C216.203 190.113 216.504 189.511 216.504 188.91V188.308L216.203 188.007C216.203 188.007 216.203 187.707 215.902 187.707C215.601 187.406 215.601 187.105 215.301 187.105C210.789 182.292 204.773 179.585 197.553 179.585C190.635 179.585 184.619 181.991 179.806 186.804C174.993 191.617 172.587 197.633 172.587 204.551C172.587 211.169 174.993 217.185 179.806 222.299C184.92 226.811 190.936 229.217 197.553 229.217Z" fill="#262626"/>
<path d="M259.518 186.505C254.705 181.692 248.689 179.285 241.771 179.285C234.852 179.285 228.836 181.692 224.023 186.505C219.211 191.317 216.804 197.333 216.804 204.252C216.804 211.17 219.211 217.186 224.023 221.999C229.137 226.812 235.153 229.218 242.071 229.218C247.185 229.218 251.998 227.714 255.908 225.007V225.609C255.908 227.714 257.111 228.316 258.014 228.316C258.916 228.316 260.119 227.413 260.119 225.609V221.698C264.932 216.585 267.339 210.869 267.339 204.252C267.038 196.732 264.631 191.017 259.518 186.505ZM255.607 204.553V220.194C251.396 223.804 246.884 225.609 241.771 225.609C236.055 225.609 230.942 223.503 226.731 219.292C222.519 215.381 220.715 210.569 220.715 204.553C220.715 198.537 222.82 193.724 227.031 189.513C231.243 185.301 236.055 183.196 242.071 183.196C247.787 183.196 252.9 185.301 256.811 189.513C261.022 193.724 263.127 198.537 263.127 204.252C263.127 208.463 261.924 212.373 259.819 215.682V204.853C259.518 201.545 255.607 201.545 255.607 204.553Z" fill="#262626"/>
<path d="M273.355 228.315C274.859 228.315 275.46 227.112 275.46 226.209V206.657C275.46 201.544 275.761 198.536 276.363 196.43C277.265 193.121 279.07 190.414 281.476 188.309C283.883 186.203 286.59 185 289.598 184.097C291.102 184.097 291.703 182.894 291.703 181.992C291.703 180.488 290.801 180.187 290.199 179.886H289.899H289.598C288.094 179.886 286.289 180.488 284.183 181.691C280.574 183.496 277.566 185.902 275.46 189.211C275.46 187.406 275.46 185 275.46 182.293C275.46 179.285 271.249 179.285 271.249 182.293V226.209C271.249 227.413 272.151 228.315 273.355 228.315Z" fill="#262626"/>
<path d="M335.32 186.505C330.507 181.692 324.491 179.285 317.572 179.285C310.654 179.285 304.638 181.692 299.825 186.505C295.012 191.317 292.606 197.333 292.606 204.252C292.606 211.17 295.012 217.186 299.825 221.999C304.939 226.812 310.955 229.218 317.873 229.218C324.792 229.218 330.808 226.812 335.62 221.698C340.433 216.585 342.84 210.569 342.84 203.65C342.84 197.033 340.433 191.017 335.32 186.505ZM317.572 183.196C323.288 183.196 328.401 185.301 332.312 189.513C336.523 193.724 338.628 198.537 338.628 204.252C338.628 210.268 336.523 215.381 332.011 219.292C328.1 223.503 323.288 225.308 317.272 225.308C311.556 225.308 306.443 223.202 302.532 218.991C298.321 214.78 296.216 209.967 296.216 204.252C296.216 198.236 298.321 193.423 302.532 189.212C306.443 185.001 311.556 183.196 317.572 183.196Z" fill="#262626"/>
<path d="M381.944 191.918C381.342 188.309 379.537 185.301 376.228 182.594C373.22 180.187 369.611 178.683 365.7 178.683C362.692 178.683 359.985 179.285 357.579 180.789C355.774 181.992 353.969 183.195 352.766 185V181.992C352.766 178.984 348.555 178.984 348.555 181.992V225.909C348.555 227.413 349.758 228.014 350.66 228.014C352.164 228.014 352.766 226.811 352.766 225.909V200.942C352.766 198.235 352.766 195.829 353.067 194.626C353.668 191.016 354.872 188.309 356.977 186.203C359.384 184.098 362.392 182.894 365.4 182.894C367.806 182.894 370.212 183.496 372.017 184.699C374.724 186.203 376.529 188.61 377.131 191.618C377.732 193.422 377.732 196.731 377.732 200.942V225.909C377.732 227.112 378.635 228.014 379.838 228.014C380.44 228.014 381.041 227.714 381.342 227.413H382.244V198.837C382.545 196.13 382.244 193.723 381.944 191.918Z" fill="#262626"/>
<path d="M152.734 286.069C150.628 286.069 150.328 287.273 150.328 288.175C150.328 289.679 151.531 290.281 152.433 290.281C154.84 290.281 156.644 290.882 158.75 292.085C162.66 294.191 164.766 297.801 164.766 302.313C164.766 305.621 163.563 308.329 161.156 310.735C158.75 313.141 156.043 314.345 152.734 314.345C147.921 314.345 144.612 312.239 141.905 308.028C141.003 306.825 140.401 305.02 140.401 302.914C140.401 301.41 139.499 300.508 138.296 300.508C136.792 300.508 136.19 301.711 136.19 302.613C136.19 306.825 137.995 310.735 141.304 313.442C144.312 316.45 148.222 317.954 152.433 317.954C156.945 317.954 160.856 316.45 163.864 313.141C166.872 310.133 168.676 306.223 168.676 301.711C168.676 297.199 167.172 293.589 164.164 290.581C161.156 287.874 157.246 286.069 152.734 286.069Z" fill="#262626"/>
<path d="M151.832 273.436C155.742 273.436 158.449 274.94 160.254 278.249C160.555 278.85 161.156 280.053 161.457 281.257C161.457 282.761 162.36 283.663 163.563 283.663C164.766 283.663 165.668 282.761 165.668 281.557C165.668 277.948 163.864 274.94 160.856 273.135C158.148 270.729 155.14 269.525 151.531 269.525C147.921 269.525 144.612 270.729 141.905 273.436C139.499 276.444 137.995 279.452 137.995 283.061C137.995 286.671 139.198 289.98 141.905 292.687C144.312 295.394 147.62 296.898 151.23 296.898C152.734 296.898 153.636 295.996 153.636 294.793C153.636 293.589 152.734 292.687 151.531 292.687C148.824 292.687 146.718 291.785 144.913 289.98C143.108 288.175 142.206 285.769 142.206 283.061C142.206 280.354 143.108 277.948 144.913 276.143C147.32 274.338 149.425 273.436 151.832 273.436Z" fill="#262626"/>
<path d="M205.073 289.679C205.073 286.37 204.772 283.964 204.472 282.46C203.569 278.549 201.764 275.541 199.057 273.436C196.049 270.729 193.041 269.525 189.131 269.525C186.424 269.525 183.716 270.127 181.31 271.631C179.204 272.533 177.7 274.037 176.497 275.541V257.493C176.497 254.485 172.286 254.485 172.286 257.493V314.946C172.286 316.45 173.489 317.052 174.392 317.052C175.896 317.052 176.497 315.849 176.497 314.946V290.882C176.497 289.077 176.497 287.573 176.798 286.37C176.798 285.468 176.798 284.866 176.798 284.565C177.4 281.257 178.603 278.549 180.708 276.444C183.115 274.338 185.521 273.436 189.131 273.436C191.537 273.436 193.944 274.037 195.748 275.241C198.456 277.045 199.96 279.151 200.561 281.858C201.163 283.663 201.163 286.671 201.163 290.882V314.946C201.163 316.149 202.065 317.052 203.268 317.052C204.772 317.052 205.374 315.849 205.374 314.946L205.073 313.442V289.679Z" fill="#262626"/>
<path d="M251.396 276.443C246.584 271.631 240.868 269.224 234.251 269.224C227.633 269.224 221.617 271.631 217.105 276.443C212.292 281.256 209.886 286.971 209.886 293.589C209.886 300.207 212.292 306.223 217.105 310.735C221.918 315.547 227.633 317.954 234.552 317.954C241.47 317.954 247.185 315.547 251.697 310.735C256.51 305.922 258.916 300.207 258.916 293.288C258.916 286.37 256.51 280.955 251.396 276.443ZM219.812 308.027C215.902 304.117 213.796 299.304 213.796 293.589C213.796 287.874 215.902 283.061 219.812 278.85C223.723 274.939 228.536 272.834 234.552 272.834C239.966 272.834 245.08 274.939 248.99 278.85C252.9 282.76 255.006 287.573 255.006 293.288C255.006 299.003 252.9 304.117 248.689 308.027C244.779 311.938 239.966 314.043 234.251 314.043C228.836 314.043 223.723 311.938 219.812 308.027Z" fill="#262626"/>
<path d="M287.192 269.224C280.273 269.224 274.558 271.631 270.046 276.443C265.534 281.256 262.827 286.971 262.827 293.589C262.827 300.207 265.233 305.922 269.745 310.735V330.287C269.745 331.49 270.648 332.393 271.851 332.393C273.355 332.393 273.956 331.19 273.956 330.287V314.344C277.867 317.051 282.379 318.255 287.192 318.255C294.11 318.255 300.126 315.848 304.638 311.336C309.451 306.523 312.158 301.109 312.158 294.191C312.158 287.272 309.451 281.557 304.638 276.744C299.825 271.631 294.11 269.224 287.192 269.224ZM271.851 291.483C270.949 291.483 269.745 292.386 269.745 293.89V304.117C267.941 301.109 267.038 297.499 267.038 293.589C267.038 288.175 269.144 283.061 273.054 279.151C277.265 274.939 282.078 273.135 287.793 273.135C293.509 273.135 298.321 275.24 302.532 279.151C306.443 283.061 308.548 287.874 308.548 293.89C308.548 299.605 306.443 304.418 302.232 308.328C298.321 312.239 293.509 314.344 287.793 314.344C282.68 314.344 278.168 312.539 274.257 308.93V293.89C273.957 291.784 272.753 291.483 271.851 291.483Z" fill="#262626"/>
<path d="M201.464 337.203V358.86L221.016 347.731L201.464 337.203Z" fill="#262626"/>
<path d="M239.666 337.203V358.86L220.114 347.731L239.666 337.203Z" fill="#262626"/>
</svg>
