<svg width="348" height="348" viewBox="0 0 348 348" fill="none" xmlns="http://www.w3.org/2000/svg">
<path d="M296.591 295.277C229.219 362.65 120.086 362.65 52.435 295.277C-15.2163 227.625 -15.2163 118.492 52.435 51.1192C119.808 -16.5319 228.941 -16.5319 296.591 51.1192C363.685 118.492 363.685 227.625 296.591 295.277Z" fill="#B3D9F3"/>
<path d="M222.538 111.81L220.868 188.092C220.868 188.092 211.402 199.784 174.097 199.784C137.348 199.784 131.502 186.421 131.502 186.421L130.11 116.264C128.439 116.543 132.058 116.264 130.11 116.264C110.343 116.543 90.8553 100.674 90.8553 80.9076C90.8553 61.1412 107.002 44.994 126.769 44.994C131.78 44.994 136.791 46.1076 141.246 48.0564C147.092 36.3636 159.62 28.29 173.54 28.29C186.903 28.29 197.761 35.8068 204.164 46.6644C210.01 42.21 217.249 39.9828 225.322 39.9828C245.089 39.9828 261.236 55.8516 261.236 75.8964C261.514 95.6628 242.583 111.81 222.538 111.81C224.209 111.81 221.425 111.81 222.538 111.81Z" fill="white"/>
<path d="M78.8846 158.303C78.8846 155.241 78.6063 152.735 78.3279 151.343C77.771 148.003 76.1006 144.94 73.3166 142.435C70.5326 139.929 67.4702 138.815 63.5726 138.815C59.675 138.815 56.0558 140.207 53.2718 142.991C50.2094 140.207 46.8686 138.815 42.971 138.815C39.3518 138.815 35.7326 140.207 33.227 142.435C30.7214 144.662 28.7726 147.446 27.9374 151.343C27.6589 153.014 27.3805 155.241 27.3805 158.303V182.246C27.3805 183.638 28.4942 184.195 29.3294 184.195C30.7214 184.195 31.2782 183.081 31.2782 182.246V157.468C31.2782 153.014 32.1134 149.395 34.0622 146.611C36.011 143.548 39.0734 142.156 43.2494 142.156C46.3118 142.156 48.8174 143.27 51.0446 145.497C49.0958 148.838 48.2606 152.457 48.2606 157.468V181.967C48.2606 183.081 49.0958 183.916 50.2094 183.916C51.6014 183.916 52.1582 182.803 52.1582 181.967V157.19C52.1582 153.571 52.715 150.787 53.5502 148.838C54.3854 151.065 54.9422 154.406 54.9422 158.303V182.246C54.9422 183.359 55.7774 184.195 56.891 184.195C58.283 184.195 58.8398 183.081 58.8398 182.246V156.633C58.8398 151.622 58.0046 148.003 56.0558 145.219C58.0046 143.27 60.5102 142.156 63.5726 142.156C66.3566 142.156 68.8622 142.991 70.811 144.662C72.7598 146.054 74.1518 148.281 74.987 151.065C75.5438 152.735 75.5438 154.684 75.5438 157.468V182.246C75.5438 183.359 76.379 184.195 77.4926 184.195C78.8846 184.195 79.4414 183.081 79.4414 182.246L79.163 180.854V158.303H78.8846Z" fill="#262626"/>
<path d="M123.985 145.775C119.531 141.321 113.963 139.094 107.56 139.094C101.157 139.094 95.5886 141.321 91.1342 145.775C86.6798 150.23 84.4526 155.798 84.4526 162.201C84.4526 168.604 86.6798 174.172 91.4126 178.627C96.1454 183.081 101.713 185.308 108.117 185.308C112.849 185.308 117.304 183.916 120.923 181.411V181.967C120.923 183.916 122.037 184.473 122.872 184.473C123.707 184.473 124.821 183.638 124.821 181.967V178.348C129.275 173.615 131.502 168.326 131.502 162.201C130.945 155.519 128.44 149.951 123.985 145.775ZM120.366 162.479V176.956C116.469 180.297 112.293 181.967 107.56 181.967C102.27 181.967 97.5374 180.019 93.9182 176.121C90.0206 172.502 88.3502 168.047 88.3502 162.479C88.3502 156.911 90.299 152.457 94.1966 148.559C98.0942 144.662 102.549 142.713 108.117 142.713C113.406 142.713 118.139 144.662 121.758 148.559C125.377 152.457 127.605 156.911 127.605 162.201C127.605 166.099 126.491 169.439 124.542 172.502V162.479C123.985 159.695 120.366 159.695 120.366 162.479Z" fill="#262626"/>
<path d="M156.001 185.307C161.291 185.307 166.302 183.637 170.757 180.017C171.87 179.182 172.705 178.625 173.262 177.79H173.541V177.512C173.819 177.233 173.819 176.955 173.819 176.398C173.819 175.563 173.262 174.728 172.149 174.728H171.035L170.757 175.285V175.841C168.808 177.512 166.581 179.182 164.353 180.296C161.848 181.409 159.064 182.245 156.558 182.245C150.99 182.245 146.536 180.296 142.917 176.398C139.019 172.501 137.07 168.046 137.07 162.478C137.07 157.189 139.019 152.456 142.917 148.837C146.536 144.939 150.99 143.269 156.558 143.269C161.848 143.269 166.581 145.217 170.478 149.115L171.313 149.672H172.427L172.705 149.393C173.262 149.115 173.541 148.558 173.541 148.001V147.445L173.262 147.166C173.262 147.166 173.262 146.888 172.984 146.888C172.705 146.609 172.705 146.331 172.427 146.331C168.251 141.877 162.683 139.371 156.001 139.371C149.598 139.371 144.03 141.598 139.576 146.053C135.121 150.507 132.894 156.075 132.894 162.478C132.894 168.603 135.121 174.171 139.576 178.904C144.309 183.08 149.877 185.307 156.001 185.307Z" fill="#262626"/>
<path d="M213.352 145.775C208.897 141.321 203.329 139.094 196.926 139.094C190.523 139.094 184.955 141.321 180.5 145.775C176.046 150.23 173.819 155.798 173.819 162.201C173.819 168.604 176.046 174.172 180.5 178.627C185.233 183.081 190.801 185.308 197.204 185.308C201.937 185.308 206.392 183.916 210.011 181.411V181.967C210.011 183.916 211.124 184.473 211.96 184.473C212.795 184.473 213.908 183.638 213.908 181.967V178.348C218.363 173.615 220.59 168.326 220.59 162.201C220.312 155.241 218.084 149.951 213.352 145.775ZM209.732 162.479V176.956C205.835 180.297 201.659 181.967 196.926 181.967C191.636 181.967 186.904 180.019 183.006 176.121C179.108 172.502 177.438 168.047 177.438 162.479C177.438 156.911 179.387 152.457 183.284 148.559C187.182 144.662 191.636 142.713 197.204 142.713C202.494 142.713 207.227 144.662 210.846 148.559C214.744 152.457 216.692 156.911 216.692 162.201C216.692 166.099 215.579 169.718 213.63 172.78V162.758C213.352 159.695 209.732 159.695 209.732 162.479Z" fill="#262626"/>
<path d="M226.158 184.472C227.55 184.472 228.107 183.358 228.107 182.523V164.427C228.107 159.694 228.385 156.91 228.942 154.961C229.777 151.899 231.448 149.393 233.675 147.445C235.902 145.496 238.408 144.382 241.192 143.547C242.584 143.547 243.14 142.433 243.14 141.598C243.14 140.206 242.305 139.928 241.748 139.649H241.47H241.192C239.8 139.649 238.129 140.206 236.18 141.32C232.84 142.99 230.056 145.217 228.107 148.28C228.107 146.609 228.107 144.382 228.107 141.877C228.107 139.093 224.209 139.093 224.209 141.877V182.523C224.209 183.637 225.044 184.472 226.158 184.472Z" fill="#262626"/>
<path d="M283.509 145.775C279.054 141.321 273.486 139.094 267.083 139.094C260.68 139.094 255.112 141.321 250.657 145.775C246.203 150.23 243.976 155.798 243.976 162.201C243.976 168.604 246.203 174.172 250.657 178.627C255.39 183.081 260.958 185.308 267.361 185.308C273.765 185.308 279.333 183.081 283.787 178.348C288.241 173.615 290.469 168.047 290.469 161.644C290.469 155.519 288.241 149.951 283.509 145.775ZM267.083 142.713C272.373 142.713 277.105 144.662 280.725 148.559C284.622 152.457 286.571 156.911 286.571 162.201C286.571 167.769 284.622 172.502 280.446 176.121C276.827 180.019 272.373 181.689 266.805 181.689C261.515 181.689 256.782 179.74 253.163 175.843C249.265 171.945 247.317 167.491 247.317 162.201C247.317 156.633 249.265 152.179 253.163 148.281C256.782 144.383 261.515 142.713 267.083 142.713Z" fill="#262626"/>
<path d="M326.661 150.786C326.104 147.445 324.433 144.661 321.371 142.155C318.587 139.928 315.246 138.536 311.627 138.536C308.843 138.536 306.337 139.093 304.11 140.485C302.44 141.599 300.769 142.712 299.656 144.383V141.599C299.656 138.815 295.758 138.815 295.758 141.599V182.245C295.758 183.637 296.872 184.194 297.707 184.194C299.099 184.194 299.656 183.08 299.656 182.245V159.138C299.656 156.632 299.656 154.405 299.934 153.291C300.491 149.951 301.605 147.445 303.553 145.496C305.781 143.547 308.565 142.434 311.349 142.434C313.576 142.434 315.803 142.991 317.473 144.104C319.979 145.496 321.649 147.723 322.206 150.507C322.763 152.178 322.763 155.24 322.763 159.138V182.245C322.763 183.359 323.598 184.194 324.712 184.194C325.269 184.194 325.825 183.915 326.104 183.637H326.939V157.189C327.217 154.683 326.939 152.456 326.661 150.786Z" fill="#262626"/>
<path d="M114.52 237.926C112.571 237.926 112.293 239.039 112.293 239.875C112.293 241.267 113.406 241.823 114.241 241.823C116.469 241.823 118.139 242.38 120.088 243.494C123.707 245.443 125.656 248.783 125.656 252.959C125.656 256.022 124.542 258.527 122.315 260.755C120.088 262.982 117.582 264.095 114.52 264.095C110.065 264.095 107.003 262.147 104.497 258.249C103.662 257.135 103.105 255.465 103.105 253.516C103.105 252.124 102.27 251.289 101.157 251.289C99.7646 251.289 99.2078 252.403 99.2078 253.238C99.2078 257.135 100.878 260.755 103.941 263.26C106.725 266.044 110.344 267.436 114.241 267.436C118.417 267.436 122.037 266.044 124.821 262.982C127.605 260.198 129.275 256.579 129.275 252.403C129.275 248.227 127.883 244.886 125.099 242.102C122.315 239.596 118.696 237.926 114.52 237.926Z" fill="#262626"/>
<path d="M113.685 226.233C117.304 226.233 119.809 227.625 121.48 230.688C121.758 231.245 122.315 232.358 122.593 233.472C122.593 234.864 123.429 235.699 124.542 235.699C125.656 235.699 126.491 234.864 126.491 233.75C126.491 230.409 124.821 227.625 122.037 225.955C119.531 223.728 116.747 222.614 113.406 222.614C110.065 222.614 107.003 223.728 104.497 226.233C102.27 229.017 100.878 231.801 100.878 235.142C100.878 238.483 101.992 241.545 104.497 244.051C106.725 246.557 109.787 247.949 113.128 247.949C114.52 247.949 115.355 247.113 115.355 246C115.355 244.886 114.52 244.051 113.406 244.051C110.901 244.051 108.952 243.216 107.281 241.545C105.611 239.875 104.776 237.648 104.776 235.142C104.776 232.637 105.611 230.409 107.281 228.739C109.509 227.069 111.457 226.233 113.685 226.233Z" fill="#262626"/>
<path d="M162.961 241.266C162.961 238.204 162.683 235.977 162.405 234.585C161.569 230.966 159.899 228.182 157.393 226.233C154.609 223.727 151.825 222.614 148.206 222.614C145.701 222.614 143.195 223.17 140.968 224.562C139.019 225.398 137.627 226.79 136.513 228.182V211.478C136.513 208.694 132.616 208.694 132.616 211.478V264.652C132.616 266.044 133.729 266.601 134.565 266.601C135.957 266.601 136.513 265.487 136.513 264.652V242.38C136.513 240.71 136.513 239.318 136.792 238.204C136.792 237.369 136.792 236.812 136.792 236.534C137.349 233.471 138.462 230.966 140.411 229.017C142.638 227.068 144.865 226.233 148.206 226.233C150.433 226.233 152.661 226.79 154.331 227.903C156.837 229.574 158.229 231.522 158.785 234.028C159.342 235.698 159.342 238.482 159.342 242.38V264.652C159.342 265.766 160.177 266.601 161.291 266.601C162.683 266.601 163.24 265.487 163.24 264.652L162.961 263.26V241.266Z" fill="#262626"/>
<path d="M205.835 229.017C201.381 224.562 196.091 222.335 189.966 222.335C183.841 222.335 178.273 224.562 174.097 229.017C169.643 233.471 167.416 238.761 167.416 244.885C167.416 251.01 169.643 256.578 174.097 260.754C178.552 265.209 183.841 267.436 190.245 267.436C196.648 267.436 201.937 265.209 206.113 260.754C210.568 256.3 212.795 251.01 212.795 244.607C212.795 238.204 210.568 233.193 205.835 229.017ZM176.603 258.249C172.984 254.629 171.035 250.175 171.035 244.885C171.035 239.596 172.984 235.141 176.603 231.244C180.222 227.625 184.677 225.676 190.245 225.676C195.256 225.676 199.989 227.625 203.608 231.244C207.227 234.863 209.176 239.317 209.176 244.607C209.176 249.897 207.227 254.629 203.329 258.249C199.71 261.868 195.256 263.817 189.966 263.817C184.955 263.817 180.222 261.868 176.603 258.249Z" fill="#262626"/>
<path d="M238.965 222.335C232.561 222.335 227.272 224.562 223.096 229.017C218.92 233.471 216.414 238.761 216.414 244.885C216.414 251.01 218.641 256.3 222.817 260.754V278.851C222.817 279.964 223.653 280.8 224.766 280.8C226.158 280.8 226.715 279.686 226.715 278.851V264.095C230.334 266.601 234.51 267.714 238.965 267.714C245.368 267.714 250.936 265.487 255.112 261.311C259.566 256.857 262.072 251.845 262.072 245.442C262.072 239.039 259.566 233.749 255.112 229.295C250.657 224.562 245.368 222.335 238.965 222.335ZM224.766 242.937C223.931 242.937 222.817 243.772 222.817 245.164V254.629C221.147 251.845 220.312 248.505 220.312 244.885C220.312 239.874 222.261 235.141 225.88 231.522C229.777 227.625 234.232 225.954 239.521 225.954C244.811 225.954 249.265 227.903 253.163 231.522C256.782 235.141 258.731 239.596 258.731 245.164C258.731 250.453 256.782 254.908 252.885 258.527C249.265 262.146 244.811 264.095 239.521 264.095C234.789 264.095 230.613 262.425 226.993 259.084V245.164C226.715 243.215 225.601 242.937 224.766 242.937Z" fill="#262626"/>
<path d="M159.621 285.251V305.296L177.717 294.995L159.621 285.251Z" fill="#262626"/>
<path d="M194.978 285.251V305.296L176.882 294.995L194.978 285.251Z" fill="#262626"/>
</svg>
