<svg width="37" height="28" viewBox="0 0 37 28" fill="none" xmlns="http://www.w3.org/2000/svg">
<path d="M34.6256 0.109309L0.786045 11.9546C-0.310096 12.3384 -0.24372 13.7513 0.884565 14.0504L9.48372 16.3312L12.6935 25.4784C13.0288 26.4336 14.377 26.7234 15.1564 26.0078L19.6034 21.9301L28.3262 27.6817C29.3923 28.3855 30.914 27.8626 31.1845 26.6982L36.9612 1.8864C37.2457 0.671059 35.9137 -0.341539 34.6256 0.109309ZM30.3844 5.61568L14.6638 18.1013C14.5089 18.2257 14.4094 18.3979 14.3863 18.5848L13.7804 23.4171C13.7596 23.5746 13.5145 23.5954 13.4613 23.4439L10.9725 16.2374C10.8583 15.9075 11.007 15.55 11.334 15.3678L29.8965 5.027C30.322 4.789 30.759 5.31685 30.3844 5.61568Z" fill="#262626"/>
</svg>
