<svg width="39" height="23" viewBox="0 0 39 23" fill="none" xmlns="http://www.w3.org/2000/svg">
<path fill-rule="evenodd" clip-rule="evenodd" d="M19.0811 22.9038H21.4127C21.4127 22.9038 22.1166 22.8238 22.4755 22.4231C22.8066 22.0553 22.795 21.3647 22.795 21.3647C22.795 21.3647 22.751 18.131 24.2027 17.6549C25.6336 17.1857 27.4721 20.7799 29.4194 22.162C30.892 23.208 32.0103 22.9787 32.0103 22.9787L37.22 22.9038C37.22 22.9038 39.9429 22.7302 38.6532 20.5157C38.5467 20.3345 37.9007 18.8775 34.7795 15.8836C31.5148 12.7502 31.9524 13.2572 35.8863 7.83688C38.2804 4.53589 39.239 2.52073 38.9403 1.65761C38.6532 0.835508 36.8912 1.0528 36.8912 1.0528L31.0286 1.09057C31.0286 1.09057 30.5933 1.02927 30.2714 1.22849C29.9565 1.4239 29.7528 1.87926 29.7528 1.87926C29.7528 1.87926 28.8243 4.43369 27.5879 6.60587C24.9761 11.1898 23.9318 11.4318 23.5058 11.1472C22.5125 10.4837 22.7603 8.48219 22.7603 7.06017C22.7603 2.61815 23.4109 0.766001 21.4914 0.286542C20.8547 0.127273 20.3846 0.0221949 18.7546 0.00522437C16.6614 -0.0172035 14.8902 0.0117807 13.8876 0.519699C13.2208 0.85741 12.7067 1.60998 13.0193 1.65323C13.4083 1.70687 14.2858 1.89788 14.7512 2.55302C15.3509 3.3981 15.3301 5.29634 15.3301 5.29634C15.3301 5.29634 15.6751 10.5254 14.5243 11.175C13.7324 11.6207 12.6488 10.7109 10.3218 6.55225C9.1294 4.4222 8.22872 2.06754 8.22872 2.06754C8.22872 2.06754 8.05507 1.6275 7.7448 1.39214C7.36739 1.10699 6.84409 1.01613 6.84409 1.01613L1.2709 1.0539C1.2709 1.0539 0.43503 1.07798 0.127081 1.45399C-0.146138 1.78842 0.106236 2.48024 0.106236 2.48024C0.106236 2.48024 4.46847 13.0317 9.40724 18.3488C13.9362 23.2238 19.0811 22.9038 19.0811 22.9038Z" fill="#262626"/>
</svg>
